<svg width="68" height="63" viewBox="0 0 68 63" fill="none" xmlns="http://www.w3.org/2000/svg">
<rect x="0.5" y="1.15808" width="67" height="61" rx="9.5" fill="#1A1E23" stroke="#404040"/>
<path fill-rule="evenodd" clip-rule="evenodd" d="M34.5 15.6581C35.7229 15.6581 36.7143 16.6495 36.7143 17.8724V28.9438H47.7857C49.0086 28.9438 50 29.9352 50 31.1581C50 32.381 49.0086 33.3724 47.7857 33.3724H36.7143V44.4438C36.7143 45.6667 35.7229 46.6581 34.5 46.6581C33.2771 46.6581 32.2857 45.6667 32.2857 44.4438V33.3724H21.2143C19.9914 33.3724 19 32.381 19 31.1581C19 29.9352 19.9914 28.9438 21.2143 28.9438L32.2857 28.9438V17.8724C32.2857 16.6495 33.2771 15.6581 34.5 15.6581Z" fill="#404040"/>
</svg>
