<svg width="50" height="51" viewBox="0 0 50 51" fill="none" xmlns="http://www.w3.org/2000/svg">
<circle cx="25" cy="25.3163" r="24.5" fill="white" stroke="#404040"/>
<path fill-rule="evenodd" clip-rule="evenodd" d="M25 18.3163C25.5523 18.3163 26 18.764 26 19.3163V24.3163H31C31.5523 24.3163 32 24.764 32 25.3163C32 25.8686 31.5523 26.3163 31 26.3163H26V31.3163C26 31.8686 25.5523 32.3163 25 32.3163C24.4477 32.3163 24 31.8686 24 31.3163V26.3163H19C18.4477 26.3163 18 25.8686 18 25.3163C18 24.764 18.4477 24.3163 19 24.3163L24 24.3163V19.3163C24 18.764 24.4477 18.3163 25 18.3163Z" fill="#1A1E23"/>
</svg>
