<svg width="26" height="26" viewBox="0 0 26 26" fill="none" xmlns="http://www.w3.org/2000/svg">
<path fill-rule="evenodd" clip-rule="evenodd" d="M10.4004 5.19998C8.24648 5.19998 6.50039 6.94606 6.50039 9.09998V14.3C6.50039 17.8898 9.41054 20.8 13.0004 20.8C16.5902 20.8 19.5004 17.8898 19.5004 14.3V9.09998C19.5004 8.38201 20.0824 7.79998 20.8004 7.79998C21.5184 7.79998 22.1004 8.38201 22.1004 9.09998V14.3C22.1004 19.3258 18.0262 23.4 13.0004 23.4C7.9746 23.4 3.90039 19.3258 3.90039 14.3V9.09998C3.90039 5.51012 6.81054 2.59998 10.4004 2.59998C13.9902 2.59998 16.9004 5.51012 16.9004 9.09998V14.3C16.9004 16.4539 15.1543 18.2 13.0004 18.2C10.8465 18.2 9.10039 16.4539 9.10039 14.3V9.09998C9.10039 8.38201 9.68242 7.79998 10.4004 7.79998C11.1184 7.79998 11.7004 8.38201 11.7004 9.09998V14.3C11.7004 15.0179 12.2824 15.6 13.0004 15.6C13.7184 15.6 14.3004 15.0179 14.3004 14.3V9.09998C14.3004 6.94606 12.5543 5.19998 10.4004 5.19998Z" fill="#03B3D7"/>
</svg>
