<svg width="30" height="30" viewBox="0 0 30 30" fill="none" xmlns="http://www.w3.org/2000/svg">
<g id="Icon/Solid/table">
<path id="Icon" fill-rule="evenodd" clip-rule="evenodd" d="M9 3C7.34315 3 6 4.34315 6 6V24C6 25.6569 7.34315 27 9 27H21C22.6569 27 24 25.6569 24 24V6C24 4.34315 22.6569 3 21 3H9ZM10.5 6C9.67157 6 9 6.67157 9 7.5C9 8.32843 9.67157 9 10.5 9H19.5C20.3284 9 21 8.32843 21 7.5C21 6.67157 20.3284 6 19.5 6H10.5ZM19.5 16.5C20.3284 16.5 21 17.1716 21 18V22.5C21 23.3284 20.3284 24 19.5 24C18.6716 24 18 23.3284 18 22.5V18C18 17.1716 18.6716 16.5 19.5 16.5ZM15 21C14.1716 21 13.5 21.6716 13.5 22.5C13.5 23.3284 14.1716 24 15 24H15.015C15.8434 24 16.515 23.3284 16.515 22.5C16.515 21.6716 15.8434 21 15.015 21H15ZM9 22.5C9 21.6716 9.67157 21 10.5 21H10.515C11.3434 21 12.015 21.6716 12.015 22.5C12.015 23.3284 11.3434 24 10.515 24H10.5C9.67157 24 9 23.3284 9 22.5ZM10.5 16.5C9.67157 16.5 9 17.1716 9 18C9 18.8284 9.67157 19.5 10.5 19.5H10.515C11.3434 19.5 12.015 18.8284 12.015 18C12.015 17.1716 11.3434 16.5 10.515 16.5H10.5ZM13.5 18C13.5 17.1716 14.1716 16.5 15 16.5H15.015C15.8434 16.5 16.515 17.1716 16.515 18C16.515 18.8284 15.8434 19.5 15.015 19.5H15C14.1716 19.5 13.5 18.8284 13.5 18ZM19.5 12C18.6716 12 18 12.6716 18 13.5C18 14.3284 18.6716 15 19.5 15H19.515C20.3434 15 21.015 14.3284 21.015 13.5C21.015 12.6716 20.3434 12 19.515 12H19.5ZM13.5 13.5C13.5 12.6716 14.1716 12 15 12H15.015C15.8434 12 16.515 12.6716 16.515 13.5C16.515 14.3284 15.8434 15 15.015 15H15C14.1716 15 13.5 14.3284 13.5 13.5ZM10.5 12C9.67157 12 9 12.6716 9 13.5C9 14.3284 9.67157 15 10.5 15H10.515C11.3434 15 12.015 14.3284 12.015 13.5C12.015 12.6716 11.3434 12 10.515 12H10.5Z" fill="#1A1E23"/>
</g>
</svg>
