<svg width="31" height="30" viewBox="0 0 31 30" fill="none" xmlns="http://www.w3.org/2000/svg">
<g id="Icon/Solid/presentation-chart-line">
<path id="Icon" fill-rule="evenodd" clip-rule="evenodd" d="M5 4.5C4.17157 4.5 3.5 5.17157 3.5 6C3.5 6.82843 4.17157 7.5 5 7.5V19.5C5 21.1569 6.34315 22.5 8 22.5H11.8787L9.93934 24.4393C9.35355 25.0251 9.35355 25.9749 9.93934 26.5607C10.5251 27.1464 11.4749 27.1464 12.0607 26.5607L15.5 23.1213L18.9393 26.5607C19.5251 27.1464 20.4749 27.1464 21.0607 26.5607C21.6464 25.9749 21.6464 25.0251 21.0607 24.4393L19.1213 22.5H23C24.6569 22.5 26 21.1569 26 19.5V7.5C26.8284 7.5 27.5 6.82843 27.5 6C27.5 5.17157 26.8284 4.5 26 4.5H5ZM22.5607 11.5607C23.1464 10.9749 23.1464 10.0251 22.5607 9.43934C21.9749 8.85355 21.0251 8.85355 20.4393 9.43934L15.5 14.3787L13.5607 12.4393C12.9749 11.8536 12.0251 11.8536 11.4393 12.4393L8.43934 15.4393C7.85355 16.0251 7.85355 16.9749 8.43934 17.5607C9.02513 18.1464 9.97487 18.1464 10.5607 17.5607L12.5 15.6213L14.4393 17.5607C15.0251 18.1464 15.9749 18.1464 16.5607 17.5607L22.5607 11.5607Z" fill="#1A1E23"/>
</g>
</svg>
