<svg width="42" height="46" viewBox="0 0 42 46" fill="none" xmlns="http://www.w3.org/2000/svg">
<rect width="42" height="46" fill="#1E1E1E"/>
<g id="Design">
<path d="M-617 -1687C-617 -1688.1 -616.105 -1689 -615 -1689H17166C17167.1 -1689 17168 -1688.1 17168 -1687V8777C17168 8778.1 17167.1 8779 17166 8779H-615C-616.104 8779 -617 8778.1 -617 8777V-1687Z" fill="#B5B2B2"/>
<g id="User Dashboard + Pop Ups">
<path d="M-497 -309C-497 -310.105 -496.105 -311 -495 -311H3591C3592.1 -311 3593 -310.105 3593 -309V930C3593 931.105 3592.1 932 3591 932H-495C-496.105 932 -497 931.105 -497 930V-309Z" fill="#9F9F9F"/>
<g id="Dashboard">
<rect x="-146" y="-61" width="1280" height="832" rx="10" fill="#030C14"/>
<g id="NavBar">
<rect id="Rectangle 5" x="-108" y="-25" width="260" height="760" rx="10" fill="white"/>
<g id="Frame 9">
<g id="Logo">
<path id="Vector" d="M23.1179 4.18182C31.2582 4.18182 37.804 10.7473 37.804 18.8182C37.804 23.9935 35.1317 28.4989 31.0769 31.0923C30.0983 31.7183 29.4119 32.7532 29.4119 33.915V38.8182C29.4119 40.475 28.0688 41.8182 26.4119 41.8182H17.7259C16.069 41.8182 14.7259 40.475 14.7259 38.8182V37.6435C14.7259 36.4848 13.7865 35.5455 12.6278 35.5455C10.2991 35.5455 8.43182 33.6845 8.43182 31.3636V28.0909C8.43182 26.4341 7.08868 25.0909 5.43183 25.0909H5.28481C4.40364 25.0909 3.90012 24.0455 4.40364 23.3973L7.86798 18.8477C8.23524 18.3654 8.43885 17.782 8.50715 17.1797C8.89367 13.771 10.4712 10.5942 12.9792 8.21612C15.7134 5.6235 19.3439 4.17892 23.1179 4.18182ZM23.1179 0C13.7596 0 5.96649 6.75334 4.47544 15.7312C4.3901 16.2451 4.19798 16.7378 3.88669 17.1554L1.10701 20.8846C1.09554 20.9 1.07748 20.9091 1.0583 20.9091C1.03802 20.9091 1.01908 20.9192 1.0078 20.9361L0.983885 20.9718C-0.170021 22.5609 -0.316881 24.6518 0.585263 26.3873C0.984292 27.1495 1.54729 27.7891 2.21856 28.2692C3.26725 29.0193 4.2358 30.0743 4.2358 31.3636C4.2358 34.4197 5.91206 37.1104 8.39547 38.5695C9.57266 39.2611 10.5298 40.4082 10.5298 41.7735V43C10.5298 44.6569 11.873 46 13.5298 46H30.608C32.2648 46 33.608 44.6569 33.608 43V36.1068C33.608 35.103 34.1209 34.1788 34.907 33.5547C39.3683 30.0131 42 24.6692 42 18.8182C42 8.42636 33.524 0 23.1179 0ZM32.2023 17.3545C30.3777 17.8277 29.7525 20.1006 31.0784 21.4404L31.1113 21.4736C31.8456 22.1845 31.8456 23.3973 31.1113 24.1291C30.377 24.8609 29.1602 24.8609 28.4468 24.1291C27.1045 22.8005 24.7996 23.3912 24.3138 25.2164C24.062 26.2409 23.034 26.8055 22.0689 26.5545C21.8246 26.4935 21.5949 26.385 21.3928 26.2351C21.1908 26.0852 21.0206 25.897 20.8919 25.6813C20.7632 25.4656 20.6786 25.2266 20.6429 24.9781C20.6073 24.7297 20.6213 24.4767 20.6842 24.2336C21.1771 22.4171 19.5015 20.7539 17.6841 21.2436C17.4402 21.3063 17.1863 21.3203 16.937 21.2848C16.6877 21.2493 16.4479 21.1649 16.2315 21.0367C16.015 20.9084 15.8262 20.7387 15.6758 20.5374C15.5254 20.3361 15.4165 20.1071 15.3553 19.8636C15.1035 18.9227 15.6909 17.8773 16.698 17.6264C18.524 17.1436 19.1221 14.8452 17.789 13.5073C17.4733 13.148 17.3065 12.6826 17.3224 12.2053C17.3383 11.7281 17.5356 11.2747 17.8744 10.937C18.2132 10.5993 18.6682 10.4027 19.147 10.3869C19.6259 10.371 20.0929 10.5373 20.4534 10.8518L20.4959 10.8936C21.8401 12.2149 24.1104 11.5882 24.5865 9.76455C24.8383 8.74 25.8873 8.15455 26.8733 8.42636C27.9014 8.69818 28.4888 9.72273 28.2161 10.7264C27.7225 12.5549 29.4078 14.2278 31.2372 13.7373C32.2443 13.4655 33.2723 14.0509 33.545 15.0755C33.8178 16.0582 33.2303 17.1036 32.2023 17.3545Z" fill="#030C14"/>
</g>
</g>
</g>
</g>
<path d="M-495 -310H3591V-312H-495V-310ZM3592 -309V930H3594V-309H3592ZM3591 931H-495V933H3591V931ZM-496 930V-309H-498V930H-496ZM-495 931C-495.552 931 -496 930.552 -496 930H-498C-498 931.657 -496.657 933 -495 933V931ZM3592 930C3592 930.552 3591.55 931 3591 931V933C3592.66 933 3594 931.657 3594 930H3592ZM3591 -310C3591.55 -310 3592 -309.552 3592 -309H3594C3594 -310.657 3592.66 -312 3591 -312V-310ZM-495 -312C-496.657 -312 -498 -310.657 -498 -309H-496C-496 -309.552 -495.552 -310 -495 -310V-312Z" fill="white" fill-opacity="0.1"/>
</g>
<path d="M-615 -1688H17166V-1690H-615V-1688ZM17167 -1687V8777H17169V-1687H17167ZM17166 8778H-615V8780H17166V8778ZM-616 8777V-1687H-618V8777H-616ZM-615 8778C-615.552 8778 -616 8777.55 -616 8777H-618C-618 8778.66 -616.656 8780 -615 8780V8778ZM17167 8777C17167 8777.55 17166.6 8778 17166 8778V8780C17167.7 8780 17169 8778.66 17169 8777H17167ZM17166 -1688C17166.6 -1688 17167 -1687.55 17167 -1687H17169C17169 -1688.66 17167.7 -1690 17166 -1690V-1688ZM-615 -1690C-616.657 -1690 -618 -1688.66 -618 -1687H-616C-616 -1687.55 -615.552 -1688 -615 -1688V-1690Z" fill="white" fill-opacity="0.1"/>
</g>
</svg>
