<svg width="30" height="30" viewBox="0 0 30 30" fill="none" xmlns="http://www.w3.org/2000/svg">
<g id="Icon/Solid/server">
<g id="Icon">
<path fill-rule="evenodd" clip-rule="evenodd" d="M3 7.5C3 5.84315 4.34315 4.5 6 4.5H24C25.6569 4.5 27 5.84315 27 7.5V10.5C27 12.1569 25.6569 13.5 24 13.5H6C4.34315 13.5 3 12.1569 3 10.5V7.5ZM24 9C24 9.82843 23.3284 10.5 22.5 10.5C21.6716 10.5 21 9.82843 21 9C21 8.17157 21.6716 7.5 22.5 7.5C23.3284 7.5 24 8.17157 24 9Z" fill="#1A1E23"/>
<path fill-rule="evenodd" clip-rule="evenodd" d="M3 19.5C3 17.8431 4.34315 16.5 6 16.5H24C25.6569 16.5 27 17.8431 27 19.5V22.5C27 24.1569 25.6569 25.5 24 25.5H6C4.34315 25.5 3 24.1569 3 22.5V19.5ZM24 21C24 21.8284 23.3284 22.5 22.5 22.5C21.6716 22.5 21 21.8284 21 21C21 20.1716 21.6716 19.5 22.5 19.5C23.3284 19.5 24 20.1716 24 21Z" fill="#1A1E23"/>
</g>
</g>
</svg>
