<svg width="30" height="30" viewBox="0 0 30 30" fill="none" xmlns="http://www.w3.org/2000/svg">
<g id="Icon/Solid/home">
<path id="Icon" d="M16.0303 3.43934C15.4612 2.85355 14.5386 2.85355 13.9696 3.43934L3.76956 13.9393C3.20051 14.5251 3.20051 15.4749 3.76956 16.0607C4.33861 16.6464 5.26122 16.6464 5.83027 16.0607L6.25706 15.6213V25.5C6.25706 26.3284 6.90944 27 7.7142 27H10.6285C11.4332 27 12.0856 26.3284 12.0856 25.5V22.5C12.0856 21.6716 12.738 21 13.5428 21H16.4571C17.2618 21 17.9142 21.6716 17.9142 22.5V25.5C17.9142 26.3284 18.5666 27 19.3713 27H22.2856C23.0904 27 23.7428 26.3284 23.7428 25.5V15.6213L24.1696 16.0607C24.7386 16.6464 25.6612 16.6464 26.2303 16.0607C26.7993 15.4749 26.7993 14.5251 26.2303 13.9393L16.0303 3.43934Z" fill="#111827"/>
</g>
</svg>
